<?xml version="1.0" encoding="UTF-8" standalone="no"?>
<!-- Created with Inkscape (http://www.inkscape.org/) -->

<svg
   xmlns:dc="http://purl.org/dc/elements/1.1/"
   xmlns:cc="http://creativecommons.org/ns#"
   xmlns:rdf="http://www.w3.org/1999/02/22-rdf-syntax-ns#"
   xmlns:svg="http://www.w3.org/2000/svg"
   xmlns="http://www.w3.org/2000/svg"
   xmlns:sodipodi="http://sodipodi.sourceforge.net/DTD/sodipodi-0.dtd"
   xmlns:inkscape="http://www.inkscape.org/namespaces/inkscape"
   id="svg2"
   version="1.1"
   inkscape:version="0.91 r13725"
   xml:space="preserve"
   width="1340"
   height="186"
   viewBox="0 0 1340 186"
   sodipodi:docname="logo-wikilegis-text.svg"><metadata
     id="metadata8"><rdf:RDF><cc:Work
         rdf:about=""><dc:format>image/svg+xml</dc:format><dc:type
           rdf:resource="http://purl.org/dc/dcmitype/StillImage" /><dc:title></dc:title></cc:Work></rdf:RDF></metadata><defs
     id="defs6" /><sodipodi:namedview
     pagecolor="#ffffff"
     bordercolor="#666666"
     borderopacity="1"
     objecttolerance="10"
     gridtolerance="10"
     guidetolerance="10"
     inkscape:pageopacity="0"
     inkscape:pageshadow="2"
     inkscape:window-width="1857"
     inkscape:window-height="1053"
     id="namedview4"
     showgrid="false"
     inkscape:zoom="0.51410256"
     inkscape:cx="411.94006"
     inkscape:cy="-489.86602"
     inkscape:window-x="1143"
     inkscape:window-y="483"
     inkscape:window-maximized="1"
     inkscape:current-layer="g12"
     fit-margin-top="0"
     fit-margin-left="0"
     fit-margin-right="0"
     fit-margin-bottom="0" /><g
     id="g10"
     inkscape:groupmode="layer"
     inkscape:label="ink_ext_XXXXXX"
     transform="matrix(1.25,0,0,-1.25,-475.59758,347.65564)"><g
       id="g12"
       transform="scale(0.1,0.1)"
       style="fill:#2cd27e;fill-opacity:1"><g
         style="fill:#000000"
         id="g4192"
         transform="matrix(4.9257976,0,0,4.9257976,-486.34362,5443.4529)"><path
           inkscape:connector-curvature="0"
           id="path16-6"
           style="fill:#2cd27e;fill-opacity:1;fill-rule:nonzero;stroke:none"
           d="m 979.67268,-834.10661 c -1.30982,2.22722 -2.55966,4.51635 -3.7395,6.87137 -1.17985,2.35501 -2.22971,4.71103 -3.13959,7.06605 -16.90778,44.49073 -33.74556,88.58813 -50.52635,132.29618 -16.77179,43.70706 -33.61667,87.80846 -50.52534,132.2953 0,0.65488 -0.064,1.2439 -0.26076,1.76701 -0.19598,0.52611 -0.32796,1.04822 -0.32796,1.57533 0,3.66181 2.42167,5.49072 7.27603,5.49072 l 63.29867,0 c 4.98934,0 8.38889,-2.48381 10.21865,-7.45639 l 60.16207,-178.81459 20.8573,110.97625 c 1.4398,5.3779 3.8595,9.47996 11.0385,9.47996 l 62.0119,0 c 7.139,-0.58101 11.0585,-1.87582 13.4382,-10.71586 l 22.4071,-109.54968 63.7016,178.62392 c 1.8297,4.97258 5.4393,7.45639 10.8085,7.45639 l 61.9219,0 c 3.0196,0 5.1793,-0.52313 6.4292,-1.63424 1.2398,-1.11112 1.8297,-2.61657 1.8297,-4.44947 0,-1.04523 -0.056,-1.76602 -0.1904,-2.16035 l 0,-0.589 c -8.9188,-23.03114 -18.0276,-45.99629 -27.3264,-68.89556 -9.3087,-22.90225 -18.6075,-45.80051 -27.9863,-68.70377 -9.3687,-22.89426 -18.6775,-45.79352 -27.9163,-68.76266 -9.2388,-22.96116 -18.2876,-45.9303 -27.0664,-68.82856 -0.52,-1.44256 -1.6998,-3.00692 -3.5296,-4.77692 -1.8397,-1.76701 -4.0694,-2.68346 -6.6891,-2.68346 l -48.1637,0 c -2.8796,0 -5.0493,0.589 -6.5591,1.70012 -1.4998,1.11212 -2.6196,2.55069 -3.2696,4.38359 l -31.0659,81.65486 c -4.4494,-11.90586 -8.8488,-23.55415 -13.1682,-34.99979 -4.3295,-11.45262 -8.6489,-23.16781 -12.9783,-35.07267 -0.6495,-1.8329 -1.3798,-3.72869 -2.2297,-5.76026 -0.8499,-2.02756 -1.8998,-3.92336 -3.0796,-5.68937 -1.1799,-1.76302 -2.4897,-3.27247 -3.9995,-4.44947 -1.5098,-1.17801 -3.2696,-1.76701 -5.2393,-1.76701 l -48.1737,0 c -4.18945,0 -6.93909,1.37268 -8.24892,4.12203 z m 344.03472,278.72756 c 0,2.36 0.7199,4.38359 2.1697,6.08371 1.4298,1.70412 3.5996,2.55069 6.4892,2.55069 l 57.7924,0 c 1.9597,0 4.0694,-0.78368 6.2891,-2.35202 2.2297,-1.57135 3.3396,-3.66581 3.3396,-6.28238 l 0,-274.21121 c 0,-5.76025 -3.1996,-8.63838 -9.6287,-8.63838 l -57.7924,0 c -5.7693,0 -8.6589,2.87813 -8.6589,8.63838 l 0,274.21121 z m 138.9917,0 c 0,2.36 0.7895,4.38359 2.2997,6.08371 1.4998,1.70412 3.5995,2.55069 6.3592,2.55069 l 58.1823,0 c 1.9698,0 4.0595,-0.78368 6.2292,-2.35202 2.1697,-1.57135 3.2096,-3.66581 3.2096,-6.28238 l 0,-106.97513 c 14.2881,18.32101 28.3062,36.38045 42.0744,54.17436 13.7582,17.79789 27.7164,35.85734 41.8745,54.17344 1.4398,2.22724 3.3396,4.06014 5.6293,5.43282 2.2997,1.37268 4.5294,2.03156 6.7591,2.03156 l 74.7002,0 c 3.1495,0 4.7193,-0.98633 4.7193,-2.94801 0,-1.31079 -0.7199,-2.87813 -2.1597,-4.71103 l -92.5978,-121.89589 102.4265,-153.88766 c 1.4398,-2.22623 2.1597,-3.99324 2.1597,-5.30004 0,-1.96068 -1.4398,-2.94401 -4.3194,-2.94401 l -74.3202,0 c -2.2297,0 -4.3894,0.65488 -6.5491,1.96168 -2.1598,1.31078 -3.9995,3.08079 -5.4393,5.29604 -6.9491,9.42505 -13.2383,18.45678 -18.9375,27.09017 -5.6993,8.63838 -11.2785,17.27976 -16.6478,25.84328 -5.3693,8.57549 -10.8086,17.21288 -16.3179,25.97606 -5.4993,8.77016 -11.5285,17.99655 -18.0876,27.67518 l -24.9667,-28.65053 0,-76.5535 c 0,-5.76025 -3.1396,-8.63838 -9.4388,-8.63838 l -57.9923,0 c -5.8993,0 -8.8489,2.87813 -8.8489,8.63838 l 0,274.21121 z m 301.7703,0 c 0,2.36 0.7303,4.38359 2.1697,6.08371 1.4398,1.70412 3.5995,2.55069 6.4891,2.55069 l 57.7924,0 c 1.9698,0 4.0695,-0.78368 6.2892,-2.35202 2.2297,-1.57135 3.3496,-3.66581 3.3496,-6.28238 l 0,-274.21121 c 0,-5.76025 -3.2096,-8.63838 -9.6388,-8.63838 l -57.7924,0 c -5.7692,0 -8.6588,2.87813 -8.6588,8.63838 l 0,274.21121 z m 132.5125,0.19567 c 0,2.35502 0.7799,4.38258 2.3597,6.08671 1.5698,1.70011 3.7295,2.55467 6.4892,2.55467 l 58.1923,0 c 2.2297,0 4.2595,-0.79156 6.0892,-2.35901 1.8298,-1.56834 2.8196,-3.6658 2.9496,-6.28237 l 0,-213.56081 108.1258,0 c 2.3597,0 4.3894,-0.78368 6.0992,-2.35602 1.6998,-1.57133 2.5497,-3.72769 2.5497,-6.47704 l 0,-51.62367 c 0,-2.22224 -0.72,-4.2548 -2.2298,-6.08371 -1.4998,-1.8319 -3.6695,-2.81523 -6.4191,-2.94401 l -175.5569,0 c -5.7692,0 -8.6489,2.87813 -8.6489,8.63838 l 0,274.40688 z m 238.6686,-0.589 c 0,2.75333 0.7799,4.97158 2.2897,6.60981 1.4998,1.63424 3.5995,2.41792 6.3492,2.41792 l 195.2243,0 c 2.8796,0 5.1093,-0.84657 6.6791,-2.55069 1.5798,-1.70012 2.3597,-3.98925 2.3597,-6.87138 l 0,-48.67575 c 0,-2.22623 -0.7799,-4.32069 -2.3597,-6.34427 -1.5698,-2.03156 -3.8595,-3.0728 -6.8791,-3.0728 l -127.3932,0 0,-48.48797 98.297,0 c 2.4897,0 4.5894,-0.589 6.2292,-1.76702 1.6298,-1.18199 2.4297,-3.13868 2.4297,-5.88803 l 0,-42.40127 c 0,-1.82891 -0.7303,-3.59591 -2.1697,-5.29604 -1.4398,-1.70411 -3.5396,-2.55368 -6.2892,-2.55368 l -98.497,0 0,-50.05232 132.1126,0 c 5.8992,0 8.8488,-3.00692 8.8488,-9.03172 l 0,-49.46333 c 0,-1.30579 -0.5303,-2.48779 -1.5698,-3.53301 -0.5295,-3.66181 -3.2195,-5.49471 -8.0689,-5.49471 l -198.9538,0 c -2.6197,0 -4.7194,0.71779 -6.2792,2.09445 -1.5798,1.37268 -2.3597,3.46315 -2.3597,6.34427 l 0,274.01754 z m 449.6008,-73.21225 c -6.6791,4.71103 -13.8283,8.37284 -21.4273,10.98941 -7.5989,2.62056 -15.7278,3.92635 -24.3765,3.92635 -10.8787,0 -20.8373,-2.02756 -29.8863,-6.15359 -9.0488,-4.12202 -16.7777,-9.74451 -23.2568,-16.81155 -6.4892,-7.06605 -11.5985,-15.3101 -15.278,-24.79705 -3.6696,-9.48396 -5.4993,-19.63179 -5.4993,-30.36364 0,-10.72784 1.8297,-20.7998 5.4993,-30.22586 3.6795,-9.41707 8.7888,-17.59923 15.278,-24.60238 6.4791,-7.00015 14.208,-12.55775 23.2568,-16.61688 9.049,-4.05515 19.0076,-6.08771 29.8863,-6.08771 4.5892,0 9.1688,0.33144 13.6981,0.98334 4.5194,0.65489 9.2986,1.50545 14.4081,2.54968 l 0,51.429 c 0,2.48779 0.7199,4.58225 2.1697,6.21648 1.4397,1.63324 3.5995,2.41791 6.4892,2.41791 l 53.4729,0 c 1.9596,0 4.0595,-0.78467 6.289,-2.35202 2.2299,-1.56735 3.3396,-3.66579 3.3396,-6.28237 l 0,-95.00328 c 0,-3.53303 -1.8996,-6.41116 -5.6991,-8.63339 -6.1593,-4.18892 -12.9783,-7.79183 -20.4373,-10.79874 -7.4791,-3.0099 -15.2781,-5.4947 -23.407,-7.45638 -8.1189,-1.96468 -16.3177,-3.40424 -24.6368,-4.38658 -8.3188,-0.97934 -16.4477,-1.50146 -24.3066,-1.50146 -13.8983,0 -27.1966,1.76701 -39.9749,5.30003 -12.7883,3.53303 -24.7767,8.56751 -35.9152,15.11044 -11.1386,6.54393 -21.2372,14.39764 -30.336,23.48826 -9.1188,9.09761 -16.9778,19.17456 -23.5269,30.22987 -6.5592,11.05529 -11.5985,22.96914 -15.138,35.72455 -3.5396,12.75942 -5.3093,26.04594 -5.3093,39.90949 0,13.87453 1.7697,27.21895 5.3093,39.97937 3.5395,12.76341 8.5788,24.73116 15.138,35.92322 6.5491,11.18408 14.4081,21.32692 23.5269,30.48742 9.0988,9.15652 19.1974,17.01422 30.336,23.49127 11.1385,6.47714 23.1269,11.51162 35.9152,15.11153 12.7783,3.59891 26.0766,5.36593 39.9749,5.36593 15.7179,0 30.5957,-2.15636 44.5541,-6.54393 13.9581,-4.38259 27.0663,-10.73195 39.3846,-18.976 2.2298,-1.3058 3.9396,-3.00592 5.1095,-5.17026 1.1799,-2.15635 0.9198,-4.64115 -0.78,-7.39049 l -31.8458,-45.92931 c -1.7097,-2.09445 -3.4095,-3.46713 -5.1193,-4.1889 -1.6998,-0.71679 -3.9894,-0.19857 -6.8791,1.63822 z m 111.8653,73.60558 c 0,2.36 0.7199,4.38359 2.1598,6.08371 1.4397,1.70412 3.5994,2.55069 6.4891,2.55069 l 57.8025,0 c 1.9596,0 4.0593,-0.78368 6.279,-2.35202 2.2396,-1.57135 3.3496,-3.66581 3.3496,-6.28238 l 0,-274.21121 c 0,-5.76025 -3.2096,-8.63838 -9.6286,-8.63838 l -57.8025,0 c -5.7693,0 -8.6489,2.87813 -8.6489,8.63838 l 0,274.21121 z m 176.1468,-188.82865 c 2.2297,-1.82891 5.1093,-4.25081 8.5889,-7.3316 3.4694,-3.07281 7.3989,-6.1456 11.8584,-9.15651 6.6791,-4.44947 13.2983,-7.91561 19.8574,-10.4044 6.5491,-2.48379 13.4283,-3.72769 20.6372,-3.72769 6.6891,0 12.3186,0.78368 16.8378,2.29312 4.5295,1.50146 8.0689,3.46713 10.6886,5.95492 2.6196,2.48381 4.5195,5.36194 5.6393,8.62941 1.1099,3.27645 1.6297,6.74259 1.6297,10.40439 0,4.06014 -1.4997,7.72194 -4.5893,10.93051 -3.0696,3.20159 -6.8791,6.01783 -11.3384,8.50162 -4.4495,2.48779 -9.0988,4.64814 -13.9483,6.41514 -4.8494,1.76602 -9.0488,3.20159 -12.5883,4.3796 -15.718,5.50169 -29.4861,11.45662 -41.2847,17.80188 -11.7983,6.34027 -21.617,13.40632 -29.4861,21.19814 -7.859,7.78783 -13.758,16.35534 -17.6976,25.7105 -3.9193,9.35917 -5.8993,19.75958 -5.8993,31.27909 0,12.16642 2.4997,23.22571 7.409,33.16989 4.9195,9.94816 11.9285,18.44978 21.0374,25.51583 9.1087,7.06615 20.0572,12.56484 32.8955,16.42132 12.8384,3.86446 27.1965,5.76026 43.0544,5.76026 11.9284,0 23.397,-1.30679 34.3355,-3.98926 10.9486,-2.67946 21.6872,-7.00414 32.3157,-12.8883 4.4494,-2.62056 8.709,-5.30402 12.7084,-8.11926 3.9995,-2.80825 7.469,-5.55759 10.4886,-8.17018 3.0096,-2.62056 5.4393,-5.10436 7.209,-7.46337 1.7699,-2.35601 2.6197,-4.38758 2.6197,-6.07971 0,-1.70412 -0.3896,-3.27646 -1.2498,-4.71503 -0.8499,-1.44256 -2.1597,-3.0768 -3.8696,-4.90969 l -30.0659,-31.99288 c -2.2396,-2.22623 -4.4694,-3.33835 -6.6992,-3.33835 -1.8298,0 -3.4595,0.5271 -4.9693,1.57234 -1.5099,1.04823 -3.2096,2.35502 -5.0493,3.92636 l -1.7699,1.56834 c -2.6196,2.22624 -5.5092,4.51537 -8.7087,6.87038 -3.2197,2.35602 -6.6992,4.51636 -10.3587,6.41515 -3.6694,1.89579 -7.539,3.46713 -11.5983,4.70704 -4.0596,1.2439 -8.1891,1.8329 -12.3886,1.8329 -4.3294,0 -8.3888,-0.32745 -12.1884,-1.04923 -3.7994,-0.71769 -7.139,-1.89479 -10.0287,-3.46614 -2.8796,-1.56834 -5.1792,-3.5999 -6.8791,-6.1506 -1.6997,-2.55367 -2.5496,-5.69336 -2.5496,-9.35516 0,-3.66181 0.9098,-6.80848 2.7497,-9.48795 1.8397,-2.68247 4.5895,-5.17026 8.2489,-7.45939 3.6795,-2.28913 8.2589,-4.44947 13.7082,-6.47803 5.4293,-2.02359 11.7284,-4.24981 18.9275,-6.60583 13.8981,-4.58225 26.7364,-9.35518 38.475,-14.39764 11.7284,-5.03449 21.8171,-10.98841 30.3358,-17.85979 8.519,-6.87137 15.1982,-15.11543 19.9875,-24.66927 4.7894,-9.55084 7.1491,-21.13225 7.1491,-34.74222 0,-14.39365 -2.9496,-27.41462 -8.849,-39.12082 -5.8991,-11.71518 -13.9581,-21.72524 -24.2567,-29.96929 -10.2786,-8.24406 -22.407,-14.59232 -36.2951,-19.10868 -13.8983,-4.51137 -28.8362,-6.8005 -44.8242,-6.8005 -15.078,0 -29.8861,2.67847 -44.4341,8.04439 -14.5381,5.36592 -28.1063,12.56474 -40.6947,21.59247 -5.2393,3.79458 -9.6287,7.52627 -13.2383,11.18808 -3.5995,3.6658 -6.4792,6.60682 -8.5889,8.83305 l -0.5894,0.58901 c -0.1202,0.25756 -0.2601,0.46032 -0.3801,0.52611 -0.1397,0.0629 -0.2695,0.12878 -0.3999,0.25756 -0.1299,0.26556 -0.2599,0.46022 -0.3895,0.52611 -0.1299,0.0629 -0.2599,0.12489 -0.3999,0.26156 -3.0097,3.26847 -4.5194,5.88903 -4.5194,7.84972 0,2.22723 1.5097,4.71103 4.5194,7.46038 l 34.0154,32.38621 c 2.7497,1.96168 4.9793,2.94901 6.6891,2.94901 1.18,0 2.4198,-0.39843 3.7296,-1.182 1.3099,-0.78767 2.8797,-1.96168 4.7194,-3.53302" /></g></g></g></svg>