<?xml version="1.0" encoding="UTF-8" standalone="no"?>
<!-- Created with Inkscape (http://www.inkscape.org/) -->

<svg
   xmlns:dc="http://purl.org/dc/elements/1.1/"
   xmlns:cc="http://creativecommons.org/ns#"
   xmlns:rdf="http://www.w3.org/1999/02/22-rdf-syntax-ns#"
   xmlns:svg="http://www.w3.org/2000/svg"
   xmlns="http://www.w3.org/2000/svg"
   xmlns:sodipodi="http://sodipodi.sourceforge.net/DTD/sodipodi-0.dtd"
   xmlns:inkscape="http://www.inkscape.org/namespaces/inkscape"
   id="svg2"
   version="1.1"
   inkscape:version="0.91 r13725"
   xml:space="preserve"
   width="500"
   height="360"
   viewBox="0 0 500 360"
   sodipodi:docname="logo-wikilegis.svg"><metadata
     id="metadata8"><rdf:RDF><cc:Work
         rdf:about=""><dc:format>image/svg+xml</dc:format><dc:type
           rdf:resource="http://purl.org/dc/dcmitype/StillImage" /><dc:title></dc:title></cc:Work></rdf:RDF></metadata><defs
     id="defs6" /><sodipodi:namedview
     pagecolor="#ffffff"
     bordercolor="#666666"
     borderopacity="1"
     objecttolerance="10"
     gridtolerance="10"
     guidetolerance="10"
     inkscape:pageopacity="0"
     inkscape:pageshadow="2"
     inkscape:window-width="1857"
     inkscape:window-height="1053"
     id="namedview4"
     showgrid="false"
     fit-margin-top="0"
     fit-margin-left="0"
     fit-margin-right="0"
     fit-margin-bottom="0"
     inkscape:zoom="0.51410256"
     inkscape:cx="346.09578"
     inkscape:cy="39.080562"
     inkscape:window-x="1143"
     inkscape:window-y="483"
     inkscape:window-maximized="1"
     inkscape:current-layer="g12" /><g
     id="g10"
     inkscape:groupmode="layer"
     inkscape:label="ink_ext_XXXXXX"
     transform="matrix(1.25,0,0,-1.25,13.123907,-115.05195)"><g
       id="g12"
       transform="scale(0.1,0.1)"
       style="fill:#2cd27e;fill-opacity:1"><path
         d="m 1930.7681,-2390.523 c 49.7522,0 91.2353,-35.5444 100.4381,-82.6433 l 184.8166,-77.4335 -100.9318,455.9573 c -13.0976,1.9126 -25.2571,6.5943 -35.9309,13.4527 l -202.8411,-199.4175 0,-7.2988 c 13.1564,-34.6442 26.6356,-69.1565 40.3591,-103.5708 4.6037,0.6311 9.315,0.9539 14.09,0.9539 z m 272.0251,332.9708 294.5162,-548.7857 c 3.0351,0.2839 6.1091,0.4403 9.2223,0.4403 2.307,0 4.5794,-0.078 6.8521,-0.2495 l 57.9581,189.6531 c -36.9039,17.2392 -62.4838,54.7108 -62.4838,98.1655 0,33.5925 15.2923,63.614 39.2888,83.4848 l -431.2035,861.5429 c -2.2139,-0.7241 -4.4669,-1.3552 -6.7395,-1.9274 l 39.9388,-539.6915 c 40.1099,-9.7301 69.9268,-45.9202 69.9268,-89.0664 0,-19.9884 -6.4118,-38.4893 -17.2763,-53.5661 z m 408.1843,-152.6755 c 1.9841,0.1125 4.0075,0.1712 6.0504,0.1712 3.778,0 7.502,-0.1712 11.1871,-0.5773 l 332.2022,874.9613 c -20.5412,16.7938 -33.6587,42.3638 -33.6587,70.9911 0,50.5966 41.0092,91.6444 91.5582,91.6444 42.9735,0 79.0562,-29.6743 88.8895,-69.6701 l 621.9631,0 c 12.3695,32.2178 43.5651,55.107 80.0827,55.107 47.3478,0 85.7567,-38.4455 85.7567,-85.833 0,-47.373 -38.4089,-85.8182 -85.7567,-85.8182 -1.9647,0 -3.9148,0.073 -5.8598,0.1907 l -438.935,-1287.9777 c 9.8477,4.0112 20.6144,6.2273 31.9186,6.2273 46.8884,0 84.9163,-38.0637 84.9163,-84.9964 0,-46.9326 -38.0279,-84.9768 -84.9163,-84.9768 -31.4252,0 -58.877,17.0825 -73.5581,42.5152 l -319.4464,-848.2429 c 15.4437,-14.5797 25.0863,-35.2366 25.0863,-58.1672 0,-44.1796 -35.7991,-80.0088 -79.9361,-80.0088 -32.569,0 -60.6316,19.5481 -73.06,47.5428 l -269.5473,0 c -12.1009,-53.3904 -59.8298,-93.2705 -116.8349,-93.2705 -66.1491,0 -119.8112,53.6961 -119.8112,119.9083 0,36.1539 15.996,68.5435 41.2534,90.5379 -157.1744,332.0919 -310.1509,664.6468 -469.7492,995.0393 -3.3038,-0.3278 -6.6272,-0.4793 -10.0042,-0.4793 -56.5262,0 -102.3639,45.8613 -102.3639,102.4458 0,27.3601 10.7472,52.2402 28.2142,70.6434 l -13.8211,28.0354 -582.7282,-1271.0117 c -6.1483,-14.4272 -18.5032,-27.2874 -37.0211,-38.619 -18.5177,-11.3125 -36.0044,-16.988 -52.46,-16.988 l -351.82422,0 c -16.45544,0 -33.94699,6.172 -52.48432,18.5359 -18.49835,12.3631 -30.84845,26.7711 -37.01622,43.2432 l -827.092237,2273.5596 c -12.332663,35.0063 -8.743603,64.8712 10.805455,89.5801 19.549301,24.7089 46.810956,37.0511 81.7852,37.0511 l 648.099692,0 c 16.45544,0 34.43566,-6.1491 53.98467,-18.5158 19.5491,-12.3617 32.41722,-26.7683 38.58499,-43.2442 l 361.08579,-1022.476 499.151,1027.0059 c -3.2109,-0.592 -6.5099,-0.8952 -9.8721,-0.8952 -30.4869,0 -55.2116,24.7432 -55.2116,55.2587 0,30.5205 24.7247,55.2441 55.2116,55.2441 30.467,0 55.1917,-24.7236 55.1917,-55.2441 0,-3.5321 -0.3422,-6.9905 -0.9531,-10.3365 16.1133,8.8102 31.4203,13.2031 45.9501,13.2031 98.7766,0 171.763,1.3794 283.9941,2.7933 9.9652,52.8323 52.6945,105.5571 111.9868,105.5571 59.3167,0 113.9954,-51.1007 113.9954,-114.0982 0,-24.0583 -7.4481,-46.3801 -20.1598,-64.7833 l 435.1766,-880.763 z m 73.7293,-23.6425 c 3.3966,-2.7492 6.6419,-5.6941 9.7158,-8.825 l 611.1576,414.0339 c -4.2568,10.5859 -6.6272,22.1456 -6.6272,34.243 0,22.7962 8.3232,43.6602 22.1099,59.6958 l -264.0686,386.9524 c -11.7587,-5.4839 -24.8565,-8.5608 -38.6776,-8.5608 -1.4126,0 -2.7859,0.049 -4.1788,0.098 L 2684.7068,-2233.87 Z m 422.651,947.7475 c -3.4946,-14.5631 -10.4637,-27.7858 -19.989,-38.7143 l 263.9319,-386.747 c 11.8954,5.6355 25.179,8.8103 39.2153,8.8103 19.031,0 36.7084,-5.8116 51.3504,-15.7666 l 300.6841,391.2183 c -10.3462,12.802 -17.0859,28.642 -18.6742,45.9737 l -616.5185,-4.7744 z m 653.5933,-79.5908 -292.4882,-380.5929 c 8.6262,-13.9859 13.6113,-30.4764 13.6113,-48.1119 0,-43.1316 -29.7831,-79.302 -69.8733,-89.0515 l -57.9972,-675.7104 406.7474,1193.4667 z m -511.291,-1489.0046 -292.7178,-348.1599 c 11.5487,-16.5883 18.3469,-36.7478 18.3469,-58.4922 0,-56.5648 -45.8377,-102.4453 -102.369,-102.4453 -56.5066,0 -102.3443,45.8805 -102.3443,102.4453 0,26.3868 9.9456,50.4451 26.3279,68.5988 l -258.3214,399.0697 c -10.0433,-3.5368 -20.81,-5.4447 -32.0507,-5.4447 -53.3054,0 -96.5431,43.2636 -96.5431,96.6147 0,1.9077 0.073,3.8007 0.1713,5.6745 l -110.9557,41.5614 200.3192,-905.7617 c 57.1567,-4.93 102.8428,-50.0464 108.7221,-106.9908 l 260.628,0 c 3.3625,41.0841 37.7444,73.3782 79.648,73.3782 7.4091,0 14.5689,-1.0125 21.3819,-2.9048 l 279.7567,742.8568 z m -817.7959,-661.3761 -194.4009,865.0788 -226.6469,94.2273 c -5.3466,-6.7068 -11.5142,-12.7287 -18.3467,-17.9238 136.0615,-318.2216 290.4109,-628.7776 439.3945,-941.3823 z m 871.2725,807.0856 -4.1251,-12.1173 -582.7283,359.6853 c 5.7231,13.2227 8.9144,27.7859 8.9144,43.1121 0,15.7274 -3.3428,30.6671 -9.3738,44.1394 l 611.0209,413.936 c 12.697,-12.3032 28.9423,-20.9617 47.0593,-24.3028 l -70.7674,-824.4527 z m -1215.3458,1788.593 c 26.1372,0 47.3428,-21.23075 47.3428,-47.39262 0,-26.14207 -21.2056,-47.37278 -47.3428,-47.37278 -26.137,0 -47.3478,21.23071 -47.3478,47.37278 0,26.16187 21.2108,47.39262 47.3478,47.39262 z m -275.1775,-640.1706 c -37.4952,0 -67.9036,-30.4179 -67.9036,-67.9287 0,-37.5502 30.4084,-67.9728 67.9036,-67.9728 37.4951,0 67.889,30.4226 67.889,67.9728 0,37.5108 -30.3939,67.9287 -67.889,67.9287 z m 882.6498,-832.5149 c -19.7054,-20.6387 -47.4601,-33.4995 -78.2353,-33.4995 -3.0155,0 -6.0309,0.1321 -8.9731,0.362 l -58.0753,-189.981 c 31.4837,-15.9328 53.0903,-48.591 53.0903,-86.3121 0,-28.4366 -12.2912,-54.0212 -31.8405,-71.6955 l 255.9901,-395.4594 c 13.7429,6.8974 29.2649,10.7768 45.7008,10.7768 21.0592,0 40.6082,-6.3645 56.893,-17.2929 l 353.315,420.2418 -587.865,362.8598 z m -405.8726,-217.938 130.4656,-48.8991 c 6.1284,12.4792 14.8914,23.4466 25.5261,32.1787 l -257.5197,473.5388 101.528,-456.8184 z m -329.5482,-451.1974 c 32.7789,0 59.3753,-26.6021 59.3753,-59.4119 0,-32.8098 -26.5964,-59.4265 -59.3753,-59.4265 -32.7789,0 -59.351,26.6167 -59.351,59.4265 0,32.8098 26.5721,59.4119 59.351,59.4119 z m 505.9686,1820.9039 c 35.3741,0 64.0478,-28.7006 64.0478,-64.0933 0,-35.4075 -28.6737,-64.1082 -64.0478,-64.1082 -35.3594,0 -64.0328,28.7007 -64.0328,64.1082 0,35.3927 28.6734,64.0933 64.0328,64.0933 z m 1302.7397,-842.5135 c 26.5966,0 48.1494,-21.5927 48.1494,-48.1899 0,-26.6363 -21.5528,-48.2144 -48.1494,-48.2144 -26.5916,0 -48.1639,21.5781 -48.1639,48.2144 0,26.5972 21.5723,48.1899 48.1639,48.1899"
         style="fill:#2cd27e;fill-opacity:1;fill-rule:evenodd;stroke:none"
         id="path14"
         inkscape:connector-curvature="0" /></g></g></svg>