<?xml version="1.0" encoding="iso-8859-1"?>
<!-- Generator: Adobe Illustrator 18.0.0, SVG Export Plug-In . SVG Version: 6.00 Build 0)  -->
<!DOCTYPE svg PUBLIC "-//W3C//DTD SVG 1.1//EN" "http://www.w3.org/Graphics/SVG/1.1/DTD/svg11.dtd">
<svg xmlns="http://www.w3.org/2000/svg" xmlns:xlink="http://www.w3.org/1999/xlink" version="1.1" id="Capa_1" x="0px" y="0px" viewBox="0 0 60 60" style="enable-background:new 0 0 60 60;" xml:space="preserve" width="512px" height="512px">
<g>
	<path d="M51,54h-1v-2.36c0-3.535-1.845-6.748-4.827-8.64C48.155,41.108,50,37.895,50,34.36V32h1c0.553,0,1-0.447,1-1s-0.447-1-1-1   h-1h-1H35h-1h-1c-0.553,0-1,0.447-1,1s0.447,1,1,1h1v2.36c0,3.535,1.845,6.748,4.827,8.64C35.845,44.892,34,48.105,34,51.64V54h-1   c-0.553,0-1,0.447-1,1s0.447,1,1,1h1h1h14h1h1c0.553,0,1-0.447,1-1S51.553,54,51,54z M36,34.36V32h12v2.36   c0,3.319-2.033,6.298-5.197,7.64h-1.605C38.033,40.658,36,37.68,36,34.36z M36,51.64c0-3.319,2.033-6.298,5.197-7.64h1.605   C45.967,45.342,48,48.32,48,51.64V54H36V51.64z" fill="#2cd27e"/>
	<path d="M25,49c-2.206,0-4,1.794-4,4s1.794,4,4,4s4-1.794,4-4S27.206,49,25,49z M25,55c-1.103,0-2-0.897-2-2s0.897-2,2-2   s2,0.897,2,2S26.103,55,25,55z" fill="#2cd27e"/>
	<path d="M37.595,58H12.405C11.079,58,10,56.921,10,55.595V48h18c0.553,0,1-0.447,1-1s-0.447-1-1-1H10V8h30v17c0,0.553,0.447,1,1,1   s1-0.447,1-1V4.405C42,1.977,40.023,0,37.595,0H12.405C9.977,0,8,1.977,8,4.405v51.189C8,58.023,9.977,60,12.405,60h25.189   c0.553,0,1-0.447,1-1S38.147,58,37.595,58z M12.405,2h25.189C38.921,2,40,3.079,40,4.405V6H10V4.405C10,3.079,11.079,2,12.405,2z" fill="#2cd27e"/>
	<path d="M21,5h4c0.553,0,1-0.447,1-1s-0.447-1-1-1h-4c-0.553,0-1,0.447-1,1S20.447,5,21,5z" fill="#2cd27e"/>
</g>
<g>
</g>
<g>
</g>
<g>
</g>
<g>
</g>
<g>
</g>
<g>
</g>
<g>
</g>
<g>
</g>
<g>
</g>
<g>
</g>
<g>
</g>
<g>
</g>
<g>
</g>
<g>
</g>
<g>
</g>
</svg>
