<?xml version="1.0" encoding="UTF-8" standalone="no"?>
<svg
   xmlns:dc="http://purl.org/dc/elements/1.1/"
   xmlns:cc="http://creativecommons.org/ns#"
   xmlns:rdf="http://www.w3.org/1999/02/22-rdf-syntax-ns#"
   xmlns:svg="http://www.w3.org/2000/svg"
   xmlns="http://www.w3.org/2000/svg"
   viewBox="0 0 50 49.999999"
   height="50"
   width="50"
   xml:space="preserve"
   version="1.1"
   id="svg2"><metadata
     id="metadata8"><rdf:RDF><cc:Work
         rdf:about=""><dc:format>image/svg+xml</dc:format><dc:type
           rdf:resource="http://purl.org/dc/dcmitype/StillImage" /><dc:title></dc:title></cc:Work></rdf:RDF></metadata><defs
     id="defs6"><clipPath
       id="clipPath42"
       clipPathUnits="userSpaceOnUse"><path
         id="path44"
         d="M 0,500 1024,500 1024,0 0,0 0,500 Z" /></clipPath><clipPath
       id="clipPath54"
       clipPathUnits="userSpaceOnUse"><path
         id="path56"
         d="M 0,500 1024,500 1024,0 0,0 0,500 Z" /></clipPath><clipPath
       id="clipPath42-3"
       clipPathUnits="userSpaceOnUse"><path
         id="path44-6"
         d="M 0,500 1024,500 1024,0 0,0 0,500 Z" /></clipPath></defs><g
     transform="matrix(1.25,0,0,-1.25,-318.46752,106.64342)"
     id="g10"><g
       id="g38"
       transform="matrix(0.14987223,0,0,0.14987167,159.5223,27.247362)"><g
         clip-path="url(#clipPath42-3)"
         id="g40"><g
           transform="translate(887.7168,387.4473)"
           id="g46"><path
             id="path48"
             style="fill:#ffffff;fill-opacity:1;fill-rule:nonzero;stroke:none"
             d="m 0,0 -237.434,0 c -8.136,0 -14.73,-6.594 -14.73,-14.73 l 0,-237.434 c 0,-8.135 6.594,-14.731 14.73,-14.731 l 127.827,0 0,103.356 -34.782,0 0,40.28 34.782,0 0,29.705 c 0,34.472 21.054,53.243 51.806,53.243 14.731,0 27.391,-1.096 31.08,-1.586 l 0,-36.026 -21.328,-0.01 c -16.724,0 -19.963,-7.947 -19.963,-19.609 l 0,-25.717 39.887,0 -5.193,-40.28 -34.694,0 0,-103.356 68.012,0 c 8.135,0 14.73,6.596 14.73,14.731 l 0,237.434 C 14.73,-6.594 8.135,0 0,0" /></g></g></g></g></svg>