<?xml version="1.0" encoding="UTF-8"?>
<!DOCTYPE svg PUBLIC "-//W3C//DTD SVG 1.1//EN" "http://www.w3.org/Graphics/SVG/1.1/DTD/svg11.dtd">
<!-- Creator: CorelDRAW -->
<svg xmlns="http://www.w3.org/2000/svg" xml:space="preserve" width="83.3125mm" height="73.7827mm" style="shape-rendering:geometricPrecision; text-rendering:geometricPrecision; image-rendering:optimizeQuality; fill-rule:evenodd; clip-rule:evenodd"
viewBox="0 0 4.69984 4.16224"
 xmlns:xlink="http://www.w3.org/1999/xlink">
 <defs>
  <style type="text/css">
   <![CDATA[
    .str0 {stroke:#1F1A17;stroke-width:0.0112824}
    .str1 {stroke:#1F1A17;stroke-width:0.0423091}
    .fil2 {fill:none}
    .fil0 {fill:#1F1A17}
    .fil3 {fill:white}
    .fil1 {fill:#1F1A17;fill-rule:nonzero}
   ]]>
  </style>
 </defs>
 <g id="Camada_x0020_1">
  <metadata id="CorelCorpID_0Corel-Layer"/>
  <path class="fil0" d="M2.33203 0.381245l-0.211393 0c-0.0182832,0 -0.0377059,0.00627867 -0.0582738,0.0188473 -0.0205622,0.0125686 -0.034276,0.0268522 -0.0411301,0.042845l-0.555271 1.14139 -0.401028 -1.13453c-0.00685408,-0.0182832 -0.021132,-0.034276 -0.042845,-0.0479898 -0.0217074,-0.0137082 -0.0416999,-0.0205622 -0.0599831,-0.0205622l-0.719791 0c-0.0388454,0 -0.0691218,0.0137082 -0.0908292,0.0411301 -0.021713,0.027422 -0.025707,0.0605528 -0.0119989,0.0993982l0.918593 2.52271c0.00685408,0.0182832 0.0205679,0.034276 0.0411301,0.0479898 0.0205679,0.0137082 0.0399906,0.0205622 0.0582738,0.0205622l0.390745 0c0.0182775,0 0.0377003,-0.00628432 0.0582681,-0.0188529 0.0205622,-0.012563 0.034276,-0.0268466 0.0411301,-0.042845l0.684404 -1.49139 0 -1.1787z"/>
  <circle class="fil0 str0" cx="2.56045" cy="0.387636" r="0.1266"/>
  <circle class="fil0 str0" cx="2.39251" cy="1.75053" r="0.113682"/>
  <circle class="fil0 str0" cx="3.1547" cy="1.55675" r="0.120141"/>
  <circle class="fil0 str0" cx="3.60038" cy="0.387636" r="0.101689"/>
  <circle class="fil0 str0" cx="4.47883" cy="0.397339" r="0.0952294"/>
  <circle class="fil0" cx="3.52287" cy="3.06174" r="0.0887702"/>
  <circle class="fil0" cx="3.0126" cy="3.0682" r="0.133059"/>
  <circle class="fil0" cx="4.02027" cy="2.00888" r="0.0943042"/>
  <circle class="fil0 str0" cx="4.43362" cy="1.35006" r="0.0534844"/>
  <circle class="fil0" cx="3.4389" cy="2.60314" r="0.113682"/>
  <circle class="fil0" cx="3.03197" cy="1.98306" r="0.107223"/>
  <circle class="fil0 str0" cx="2.61213" cy="1.20795" r="0.101689"/>
  <circle class="fil0 str0" cx="2.98676" cy="0.432851" r="0.0711357"/>
  <circle class="fil0 str0" cx="2.56691" cy="0.0582174" r="0.0525761"/>
  <circle class="fil0" cx="2.42481" cy="2.44812" r="0.0659289"/>
  <path class="fil1" d="M2.22164 0.364045l0.342038 0 0.0130707 0 0.0390767 -0.00327191 0.543069 1.09812 0.411149 -1.08184 0.00514479 -0.0137984 0.0146051 0 0.897044 0 0.0295261 0 -0.00952801 0.0279297 -0.564686 1.65534 -0.000248214 0.000660022 -0.39044 1.0358 -0.00516735 0.0137194 -0.0295882 0.00107183 -0.516284 0 -0.013364 0 -0.00572583 -0.0122302c-0.244868,-0.513373 -0.478161,-1.02823 -0.732467,-1.53695l-0.00628996 -0.0133528 0.010425 -0.0105322 0.346991 -0.331912 -0.0573825 -0.779475 0.011085 -0.000784129 -0.0030801 -0.00617713 -0.328973 0 0 -0.0423091zm0.910391 1.20756l-0.54172 -1.08139 0.0525197 0.709078 0.000699511 0.00948853 -0.00681459 0.00687664 -0.306939 0.30145c0.199851,0.526371 0.460374,1.02751 0.699014,1.53728l0.488343 0 0.385024 -1.02143 0.555152 -1.62739 -0.832542 0.00643099 -0.437364 1.16402 -0.0336724 0.0390767 -0.0217018 -0.0434881z"/>
  <polygon class="fil1" points="3.95117,2.04039 3.45425,2.63089 3.43591,2.65268 3.42045,2.62882 3.01065,1.99638 3.00531,1.98814 3.00817,1.97878 3.14047,1.54639 3.14269,1.53913 3.14881,1.53499 3.97987,0.972518 3.58849,0.399534 3.62336,0.375739 4.02671,0.966239 4.03868,0.983755 4.02109,0.995652 3.17857,1.56587 3.05136,1.98165 3.44036,2.582 3.91895,2.01329 "/>
  <path class="fil1" d="M2.38067 1.67693l0.328663 0.137539 -0.126408 -0.570423 -0.0110117 -0.152601 0.0930801 0.120778 0.411955 0.766895 0.00982136 0.0582286 -0.0528808 -0.0198007 -0.232159 -0.0869142 0.24933 1.12636 -0.0604908 0.0133922 -0.25742 -1.1445 -0.354297 -0.147134 0.00181647 -0.10183zm0.410139 0.204607l0.204917 0.0767149 -0.317657 -0.583595 0.11274 0.50688z"/>
  <line class="fil2 str1" x1="3.94019" y1="2.04576" x2="3.16509" y2= "1.56778" />
  <polyline class="fil2 str1" points="4.47632,0.398676 4.02416,0.986451 3.93373,2.0393 "/>
  <circle class="fil0 str0" cx="4.01377" cy="0.975423" r="0.101689"/>
  <circle class="fil0" cx="2.00937" cy="0.384438" r="0.0613087"/>
  <path class="fil0" d="M2.60916 1.1063l-0.0436179 -0.592514c-0.00353704,0.000298984 -0.00711922,0.000451297 -0.0107352,0.000451297 -0.069906,0 -0.1266,-0.0566942 -0.1266,-0.1266 0,-0.000812335 5.64122e-006,-0.00162467 2.25649e-005,-0.00243701l-0.140534 0 0 0.337892c0.0256168,0.0120496 0.0433528,0.0380951 0.0433528,0.06827 0,0.0301749 -0.017736,0.0562204 -0.0433528,0.06827l0 0.672794 0.248529 -0.250966c-0.0193663,-0.0185145 -0.0314329,-0.0446051 -0.0314329,-0.0735051 0,-0.056147 0.0455415,-0.101689 0.101689,-0.101689 0.000896953,0 0.00178827,1.12824e-005 0.00267958,3.38473e-005z"/>
  <circle class="fil3" cx="2.26129" cy="0.791361" r="0.0754061"/>
  <circle class="fil0" cx="2.00609" cy="1.0499" r="0.040645"/>
  <path class="fil1" d="M0.234353 4.14399c-0.00282625,-0.00481196 -0.00551711,-0.00976495 -0.0080613,-0.014859 -0.00254983,-0.00509402 -0.0048176,-0.010188 -0.00679202,-0.0152877 -0.0365156,-0.0962222 -0.0728789,-0.19161 -0.109112,-0.286139 -0.0362223,-0.0945411 -0.0725968,-0.189928 -0.109112,-0.286151 0,-0.00141595 -0.00014103,-0.00269086 -0.000564122,-0.00382474 -0.00041745,-0.00113388 -0.000710793,-0.00226777 -0.000710793,-0.00339601 0,-0.00792591 0.00523505,-0.011886 0.0157164,-0.011886l0.136704 0c0.0107578,0 0.0181083,0.00537608 0.0220741,0.0161282l0.129912 0.386767 0.0450395 -0.240039c0.00311959,-0.0116322 0.00834336,-0.0205002 0.0238398,-0.0205002l0.133934 0c0.0154118,0.00125799 0.0238793,0.00405603 0.0290015,0.0231798l0.0484016 0.236942 0.137555 -0.38635c0.00396013,-0.0107522 0.011745,-0.0161282 0.0233434,-0.0161282l0.133736 0c0.00650996,0 0.0111809,0.00113388 0.0138718,0.00353704 0.00268522,0.00239752 0.00396013,0.00565814 0.00396013,0.00961827 0,0.00226777 -0.00014103,0.00382474 -0.000423091,0.00467657l0 0.00127491c-0.0192422,0.0498119 -0.0389188,0.0994829 -0.0590184,0.149018 -0.0200884,0.0495299 -0.040188,0.0990598 -0.0604231,0.148595 -0.0202407,0.0495242 -0.0403347,0.0990541 -0.060282,0.148725 -0.0199586,0.0496766 -0.0394942,0.0993475 -0.0584486,0.148877 -0.00113388,0.00311959 -0.00368371,0.00650996 -0.00764385,0.0103347 -0.00397142,0.0038191 -0.00877209,0.00580481 -0.0144415,0.00580481l-0.00127491 0 -0.102732 0c-0.0062279,0 -0.0109045,-0.00127491 -0.0141595,-0.00368371 -0.00324934,-0.00240316 -0.00565814,-0.00551147 -0.00707409,-0.00947724l-0.0670797 -0.176615c-0.00961827,0.0257522 -0.0191068,0.0509458 -0.028443,0.0757051 -0.0093475,0.0247762 -0.0186837,0.0501053 -0.0280199,0.0758631 -0.00141595,0.00396013 -0.00297856,0.0080613 -0.00481196,0.0124558 -0.00183904,0.00437758 -0.00410681,0.00848439 -0.00665099,0.0123035 -0.00254983,0.0038191 -0.00537608,0.00707973 -0.0086367,0.00962956 -0.00326062,0.00254419 -0.00707973,0.0038191 -0.0113219,0.0038191l-0.00127491 0 -0.102743 0c-0.00905415,0 -0.0149944,-0.00296728 -0.0178319,-0.00891876zm0.742976 -0.602871c0,-0.00509402 0.00155133,-0.00947724 0.00467093,-0.0131553 0.00310831,-0.00368371 0.00778488,-0.00551711 0.0140128,-0.00551711l0.124818 0c0.00424219,0 0.00877773,0.00169236 0.0135784,0.00509402 0.0048176,0.00339037 0.00722076,0.00792027 0.00722076,0.0135784l0 0.593106c0,0.0124558 -0.00692741,0.0186837 -0.0207992,0.0186837l-0.124818 0c-0.0124558,0 -0.0186837,-0.0062279 -0.0186837,-0.0186837l0 -0.593106zm0.300163 0c0,-0.00509402 0.00169236,-0.00947724 0.00495299,-0.0131553 0.00324934,-0.00368371 0.00778488,-0.00551711 0.0137307,-0.00551711l0.125658 0c0.00425348,0 0.00877773,0.00169236 0.0134487,0.00509402 0.00467657,0.00339037 0.00693306,0.00792027 0.00693306,0.0135784l0 0.231386c0.0308575,-0.0396239 0.0611339,-0.0786837 0.0908574,-0.117179 0.0297179,-0.03849 0.0598646,-0.0775498 0.0904343,-0.117174 0.00310831,-0.00481196 0.00720947,-0.00877773 0.0121625,-0.011745 0.00495299,-0.00296728 0.00977059,-0.00439451 0.0145825,-0.00439451l0.161333 0c0.00679202,0 0.010188,0.00212674 0.010188,0.00636893 0,0.00283753 -0.00156262,0.0062279 -0.00467093,0.0101937l-0.199964 0.263654 0.221192 0.332849c0.00311395,0.00481196 0.00466529,0.0086367 0.00466529,0.011463 0,0.00424219 -0.00310831,0.00636893 -0.00933621,0.00636893l-0.160481 0c-0.00481196,0 -0.00948853,-0.00141595 -0.0141482,-0.00424219 -0.00467657,-0.00283753 -0.0086367,-0.00666228 -0.011745,-0.011463 -0.0150056,-0.0203817 -0.0285953,-0.0399172 -0.0409101,-0.0585897 -0.0123035,-0.0186837 -0.0243362,-0.0373674 -0.0359402,-0.0558988 -0.011604,-0.0185427 -0.023349,-0.0372264 -0.0352407,-0.0561809 -0.011886,-0.0189658 -0.024906,-0.0389244 -0.0390541,-0.0598646l-0.0539244 0.06198 0 0.165575c0,0.0124558 -0.00679202,0.0186837 -0.0203817,0.0186837l-0.125241 0c-0.0127322,0 -0.0191012,-0.0062279 -0.0191012,-0.0186837l0 -0.593106zm0.65169 0c0,-0.00509402 0.00155698,-0.00947724 0.00467657,-0.0131553 0.00310831,-0.00368371 0.00777924,-0.00551711 0.0140071,-0.00551711l0.124823 0c0.00424219,0 0.00877209,0.00169236 0.0135784,0.00509402 0.00481196,0.00339037 0.00722076,0.00792027 0.00722076,0.0135784l0 0.593106c0,0.0124558 -0.00693306,0.0186837 -0.0207992,0.0186837l-0.124823 0c-0.0124558,0 -0.0186837,-0.0062279 -0.0186837,-0.0186837l0 -0.593106zm0.286156 -0.000423091c0,-0.00509402 0.00169236,-0.00947724 0.00509402,-0.0131553 0.00339601,-0.00367807 0.0080613,-0.00552839 0.0140071,-0.00552839l0.125675 0c0.00481196,0 0.00919518,0.00170929 0.0131553,0.00509966 0.00396013,0.00339601 0.00608687,0.00793155 0.00636893,0.013584l0 0.46192 0.233513 0c0.00509402,0 0.00947724,0.00169801 0.0131553,0.00509402 0.00368371,0.00340165 0.00551711,0.00806694 0.00551711,0.0140128l0 0.111662c0,0.00480068 -0.00155698,0.00919518 -0.00481196,0.0131553 -0.00324934,0.00396013 -0.00792591,0.00608687 -0.0138605,0.00636893l-0.379129 0c-0.0124558,0 -0.0186837,-0.0062279 -0.0186837,-0.0186837l0 -0.593529zm0.51541 0.00127491c0,-0.00594584 0.00169236,-0.0107522 0.00495299,-0.0142892 0.00324934,-0.00354268 0.00778488,-0.00523505 0.0137194,-0.00523505l0.421591 0c0.00622226,0 0.0110342,0.0018334 0.0144359,0.00551711 0.00339601,0.00367807 0.00509402,0.00863106 0.00509402,0.014859l0 0.105282c0,0.0048176 -0.00169801,0.0093475 -0.00509402,0.0137307 -0.00340165,0.00439451 -0.00835464,0.00665099 -0.0148646,0.00665099l-0.275111 0 0 0.10487 0.212279 0c0.00537608,0 0.00991162,0.00127491 0.0134374,0.0038191 0.00354268,0.00254983 0.00524633,0.00679202 0.00524633,0.0127379l0 0.0917036c0,0.00396013 -0.00156262,0.00778488 -0.00467093,0.011463 -0.00311959,0.00368371 -0.00764385,0.00551711 -0.0135897,0.00551711l-0.212702 0 0 0.108261 0.285299 0c0.0127379,0 0.0191068,0.00650996 0.0191068,0.0195355l0 0.106991c0,0.00282625 -0.00113388,0.00537044 -0.00339037,0.00763821 -0.00113388,0.00792591 -0.0069387,0.011886 -0.0174088,0.011886l-0.429658 0c-0.00565814,0 -0.010188,-0.00155698 -0.0135784,-0.00453554 -0.00340165,-0.00296728 -0.00509402,-0.00749154 -0.00509402,-0.0137194l0 -0.592683zm0.970949 0.158355c-0.0144302,-0.010188 -0.0298533,-0.0181083 -0.0462693,-0.0237664 -0.0164216,-0.00566378 -0.0339714,-0.00849567 -0.0526551,-0.00849567 -0.0234844,0 -0.045,0.00439451 -0.0645242,0.0133076 -0.0195355,0.00891876 -0.0362335,0.0210812 -0.0502463,0.0363689 -0.0140071,0.0152821 -0.0250414,0.0331139 -0.0329729,0.053631 -0.00792027,0.0205171 -0.011886,0.0424614 -0.011886,0.0656694 0,0.023208 0.00396578,0.045 0.011886,0.0653761 0.00793155,0.0203817 0.0189658,0.0380726 0.0329729,0.0532136 0.0140128,0.0151467 0.0307108,0.0271681 0.0502463,0.0359458 0.0195243,0.00877209 0.0410399,0.0131666 0.0645242,0.0131666 0.00991162,0 0.0198176,-0.000710793 0.0295882,-0.00212674 0.00975366,-0.00141595 0.0200884,-0.00326062 0.0311282,-0.00551711l0 -0.111239c0,-0.00537608 0.00155133,-0.00990598 0.00467093,-0.0134374 0.00310831,-0.00354268 0.00778488,-0.00523505 0.0140128,-0.00523505l0.115481 0c0.00424219,0 0.00876645,0.00169236 0.0135784,0.00509402 0.00481196,0.00339037 0.00722076,0.00792591 0.00722076,0.0135784l0 0.205493c0,0.00764385 -0.00410116,0.0138718 -0.0123148,0.0186724 -0.0132963,0.00905415 -0.0280199,0.0168503 -0.0441482,0.0233603 -0.0161339,0.00650432 -0.0329729,0.0118804 -0.0505227,0.0161226 -0.0175498,0.00425348 -0.0352407,0.00736179 -0.0532136,0.00948853 -0.0179729,0.00211546 -0.0355227,0.00324934 -0.0525028,0.00324934 -0.0300056,0 -0.0587251,-0.0038191 -0.0863275,-0.011463 -0.0275968,-0.00764385 -0.0534957,-0.0185314 -0.0775498,-0.0326852 -0.0240598,-0.0141482 -0.0458518,-0.0311395 -0.0655227,-0.0508048 -0.0196766,-0.0196766 -0.036651,-0.0414686 -0.0508048,-0.0653873 -0.0141482,-0.0239075 -0.0250526,-0.0496709 -0.0326909,-0.0772621 -0.00764385,-0.0276025 -0.011463,-0.0563332 -0.011463,-0.0863275 0,-0.0300056 0.0038191,-0.0588717 0.011463,-0.0864686 0.00763821,-0.0276025 0.0185427,-0.0534957 0.0326909,-0.0776965 0.0141538,-0.0241952 0.0311282,-0.0461282 0.0508048,-0.0659458 0.0196709,-0.0198063 0.0414629,-0.0367977 0.0655227,-0.0508104 0.0240541,-0.0140071 0.049953,-0.0249003 0.0775498,-0.0326796 0.0276025,-0.00779616 0.0563219,-0.0116153 0.0863275,-0.0116153 0.0339601,0 0.0660925,0.00467093 0.0962279,0.0141595 0.0301467,0.00947724 0.0584486,0.023208 0.0850526,0.0410399 0.0048176,0.00282625 0.00849567,0.00650996 0.0110455,0.0111809 0.00254419,0.00466529 0.00197443,0.0100414 -0.00169801,0.0159872l-0.0687777 0.0993475c-0.00367807,0.0045299 -0.00736179,0.00749718 -0.0110399,0.00905415 -0.00368371,0.00155133 -0.0086367,0.000428732 -0.0148646,-0.00354268zm0.241574 -0.159206c0,-0.00509402 0.00155698,-0.00947724 0.00467657,-0.0131553 0.00310831,-0.00368371 0.00777924,-0.00551711 0.0140071,-0.00551711l0.124818 0c0.00424219,0 0.00877773,0.00169236 0.013584,0.00509402 0.00481196,0.00339037 0.00722076,0.00792027 0.00722076,0.0135784l0 0.593106c0,0.0124558 -0.00693306,0.0186837 -0.0208048,0.0186837l-0.124818 0c-0.0124558,0 -0.0186837,-0.0062279 -0.0186837,-0.0186837l0 -0.593106zm0.380404 0.408424c0.00481196,0.00396013 0.0110399,0.00919518 0.0185427,0.0158575 0.00750282,0.00664535 0.0159872,0.0132963 0.0256168,0.0198063 0.0144302,0.00962956 0.0287194,0.0171267 0.0428732,0.0225028 0.0141595,0.00537608 0.0290128,0.00806694 0.0445769,0.00806694 0.0144415,0 0.026604,-0.00169801 0.0363746,-0.00495863 0.00976495,-0.00324934 0.0174088,-0.00749718 0.0230669,-0.0128733 0.00566378,-0.00537608 0.00976495,-0.011604 0.0121737,-0.0186781 0.0024088,-0.00707973 0.0035314,-0.0145769 0.0035314,-0.0225028 0,-0.00877209 -0.00324934,-0.016698 -0.00990034,-0.0236367 -0.00665664,-0.00693306 -0.0148646,-0.0130199 -0.0244885,-0.018396 -0.00961827,-0.00537044 -0.0196653,-0.010047 -0.0301354,-0.0138661 -0.0104701,-0.00382474 -0.0195412,-0.00693306 -0.0271794,-0.00947724 -0.0339601,-0.0118973 -0.0636837,-0.0247706 -0.0891594,-0.0385013 -0.0254701,-0.0137194 -0.0466924,-0.0290015 -0.0636837,-0.0458518 -0.0169744,-0.016839 -0.0297123,-0.0353704 -0.038208,-0.0556111 -0.00848439,-0.020235 -0.0127379,-0.0427435 -0.0127379,-0.0676551 0,-0.0263163 0.00538736,-0.050235 0.0159985,-0.071745 0.0106111,-0.02151 0.0257522,-0.039906 0.0454287,-0.055188 0.0196653,-0.0152821 0.0433076,-0.0271794 0.0710342,-0.0355227 0.0277435,-0.00835464 0.058742,-0.0124558 0.0929785,-0.0124558 0.0257634,0 0.0505227,0.00282625 0.0741651,0.0086367 0.0236254,0.00579353 0.0468334,0.015141 0.0697706,0.0278789 0.00961827,0.00565814 0.0188135,0.011463 0.0274445,0.0175498 0.0086367,0.00607559 0.0161395,0.0120271 0.0226495,0.0176796 0.00650432,0.00566942 0.0117394,0.0110455 0.0155641,0.0161395 0.0038191,0.00509402 0.00566378,0.00948289 0.00566378,0.0131553 0,0.00368371 -0.000851824,0.00707973 -0.0026965,0.010188 -0.0018334,0.00311959 -0.00466529,0.00666228 -0.00834336,0.0106224l-0.0649586 0.0692008c-0.00481196,0.00481196 -0.00962392,0.00722076 -0.0144415,0.00722076 -0.00396013,0 -0.00749154,-0.00113388 -0.0107522,-0.00340165 -0.00325498,-0.00226777 -0.00692741,-0.00509402 -0.0108988,-0.00849567l-0.0038191 -0.00339037c-0.00565814,-0.00481196 -0.011886,-0.00976495 -0.0188135,-0.014859 -0.00694434,-0.00509402 -0.0144415,-0.00977059 -0.0223674,-0.0138718 -0.00792027,-0.00410116 -0.0162749,-0.00750282 -0.0250526,-0.010188 -0.00876645,-0.00269086 -0.0176796,-0.00396013 -0.026745,-0.00396013 -0.00933621,0 -0.0181139,0.000710793 -0.0263163,0.00226213 -0.00821361,0.00155698 -0.0154231,0.00410116 -0.021651,0.00750282 -0.0062279,0.00339037 -0.0111809,0.00778488 -0.0148646,0.0132963 -0.00367807,0.00552839 -0.00551711,0.0123204 -0.00551711,0.0202407 0,0.00792027 0.00198007,0.0147236 0.0059402,0.0205171 0.00397142,0.00581045 0.00990598,0.0111865 0.0178319,0.0161395 0.00793155,0.00495299 0.0178319,0.00962392 0.0295825,0.0140071 0.011745,0.00438323 0.0253347,0.00920082 0.0408988,0.0142948 0.0299943,0.00990598 0.0577379,0.020235 0.0830669,0.0311395 0.0253347,0.0108875 0.0471267,0.0237664 0.0655284,0.0386311 0.018396,0.014859 0.0328262,0.0326909 0.0431553,0.053349 0.0103404,0.0206638 0.0154344,0.0457164 0.0154344,0.0751466 0,0.0311339 -0.00636893,0.0593005 -0.0191068,0.0846239 -0.0127322,0.0253347 -0.0301467,0.0469857 -0.0523674,0.0648176 -0.0222151,0.0178319 -0.0484016,0.0315626 -0.078396,0.0413276 -0.0300056,0.0097593 -0.0622677,0.0147123 -0.0967976,0.0147123 -0.0325555,0 -0.0645355,-0.00579353 -0.0959571,-0.0173975 -0.0314103,-0.011604 -0.0607051,-0.0271794 -0.0878845,-0.0467036 -0.0113219,-0.00820797 -0.0207992,-0.0162806 -0.0285784,-0.0242008 -0.00778488,-0.00792591 -0.0140128,-0.0142892 -0.0185427,-0.0191068l-0.00127491 -0.00127491c-0.000282061,-0.00055848 -0.000564122,-0.000992854 -0.000846182,-0.00112824 -0.000287702,-0.00014103 -0.000569763,-0.000282061 -0.000851824,-0.000564122 -0.00027642,-0.000569763 -0.00055848,-0.000992854 -0.000851824,-0.00113388 -0.000282061,-0.00014103 -0.00055848,-0.000282061 -0.000840541,-0.000569763 -0.00650996,-0.00707409 -0.00977059,-0.0127379 -0.00977059,-0.0169801 0,-0.00481196 0.00326062,-0.010188 0.00977059,-0.0161339l0.073443 -0.0700526c0.00594584,-0.00424219 0.0107578,-0.00636893 0.0144415,-0.00636893 0.00254419,0 0.00523505,0.000851824 0.0080613,0.00254419 0.00282625,0.00170929 0.0062279,0.00425348 0.010188,0.00764385z"/>
 </g>
</svg>
