<?xml version="1.0" encoding="UTF-8" standalone="no"?>
<svg
   xmlns:dc="http://purl.org/dc/elements/1.1/"
   xmlns:cc="http://creativecommons.org/ns#"
   xmlns:rdf="http://www.w3.org/1999/02/22-rdf-syntax-ns#"
   xmlns:svg="http://www.w3.org/2000/svg"
   xmlns="http://www.w3.org/2000/svg"
   viewBox="0 0 49.999931 51.034886"
   height="51.034885"
   width="49.999931"
   xml:space="preserve"
   version="1.1"
   id="svg2"><metadata
     id="metadata8"><rdf:RDF><cc:Work
         rdf:about=""><dc:format>image/svg+xml</dc:format><dc:type
           rdf:resource="http://purl.org/dc/dcmitype/StillImage" /><dc:title></dc:title></cc:Work></rdf:RDF></metadata><defs
     id="defs6" /><g
     transform="matrix(1.25,0,0,-1.25,274.35665,979.70533)"
     id="g10"><g
       transform="scale(0.1,0.1)"
       id="g12"><path
         id="path46"
         style="fill:#ffffff;fill-opacity:1;fill-rule:nonzero;stroke:none"
         d="m -2194.7279,7633.2447 c -3.9971,105.2485 88.193,202.5028 193.538,203.7706 53.6969,4.5781 105.9302,-16.2772 146.5667,-50.2894 -16.6645,-18.3197 -33.6178,-36.4422 -51.7459,-53.4025 -35.7647,21.7357 -78.8388,38.3016 -120.6445,23.5881 -67.4377,-19.2001 -108.2693,-98.8179 -83.3205,-164.7927 20.6595,-68.8979 104.4667,-106.7135 170.1485,-77.7654 34.0116,12.1779 56.4262,43.5559 66.2679,77.2794 -38.9806,0.7747 -77.9612,0.2887 -116.9411,1.3593 -0.097,23.1937 -0.1958,46.2958 -0.097,69.4895 64.9994,0.092 130.098,0.2888 195.1939,-0.2958 3.995,-56.8115 -4.3858,-117.6236 -41.3189,-163.2291 -50.5775,-65.1015 -144.0333,-84.203 -220.0463,-58.671 -80.6905,26.5111 -139.3565,107.7841 -137.6013,192.959" /></g></g></svg>